#!OML:ASF E:\acrobat2\Project_11_07_03\Capture day 1\Session 1\Acrobat.ASF
:FULLY-SPECIFIED
:DEGREES
357
root 13.0088 25.4769 10.2317 -5.64445 -53.5235 7.58231
lowerback -3.11524 -3.06536 2.53457
upperback 0.581444 -4.37853 5.17686
thorax 2.56629 -2.21695 3.68681
lowerneck -1.73519 -2.62294 -2.72685
upperneck 10.5017 -4.1878 6.73549
head 3.99809 -1.95795 2.5817
rclavicle -2.5842e-014 3.18055e-015
rhumerus 0.0952372 -44.2627 18.9125
rradius 69.8742
rwrist -52.5189
rhand -34.6852 -2.22723
rfingers 7.12502
rthumb -7.84098 -32.0618
lclavicle -2.5842e-014 3.18055e-015
lhumerus 23.9819 -52.1966 -31.4267
lradius 22.7476
lwrist 20.6744
lhand -2.06578 -0.577915
lfingers 7.12502
lthumb 23.6103 27.9925
rfemur -19.2135 1.47819 10.765
rtibia 47.7748
rfoot 14.8429 -21.7623
rtoes 31.6955
lfemur -8.40002 13.4783 -23.6016
ltibia 44.101
lfoot 22.008 5.2358
ltoes 5.11247
358
root 13.0996 25.8053 10.214 -9.48562 -56.6956 11.5427
lowerback -1.2695 -3.06896 1.45136
upperback 1.39125 -4.30317 5.10905
thorax 2.43542 -2.20497 4.30739
lowerneck -1.81058 -2.78831 -3.32953
upperneck 10.9469 -4.53937 7.86824
head 3.80426 -2.08413 2.76189
rclavicle 1.12313e-013 -4.13472e-014
rhumerus -5.01777 -42.4875 17.2071
rradius 70.1947
rwrist -51.6378
rhand -32.3861 -5.98028
rfingers 7.12502
rthumb -5.6215 -35.8857
lclavicle 1.12313e-013 -4.13472e-014
lhumerus 14.8788 -59.3376 -26.3192
lradius 22.2895
lwrist 22.5136
lhand -1.29863 -0.192586
lfingers 7.12502
lthumb 24.3459 28.2811
rfemur -21.5275 1.2552 9.05011
rtibia 53.0882
rfoot 17.376 -18.5032
rtoes 26.7907
lfemur -9.45805 15.2053 -26.2752
ltibia 46.9973
lfoot 24.1369 2.51152
ltoes 3.96155
359
root 13.1954 26.1368 10.2108 -13.9003 -59.805 16.006
lowerback 0.594413 -3.00265 0.456595
upperback 2.27336 -4.17982 5.0075
thorax 2.3547 -2.1757 4.84611
lowerneck -1.79025 -2.98086 -3.80857
upperneck 11.0699 -4.90389 8.81056
head 3.89044 -2.24519 3.11432
rclavicle 3.73715e-014 -8.5875e-014
rhumerus -8.51014 -41.3791 14.27
rradius 68.836
rwrist -50.0361
rhand -25.2662 -6.80185
rfingers 7.12502
rthumb 1.25448 -36.7779
lclavicle 3.73715e-014 -8.5875e-014
lhumerus 1.09145 -65.1205 -15.4952
lradius 21.5728
lwrist 22.7728
lhand 0.37649 0.189404
lfingers 7.12502
lthumb 25.9509 28.4379
rfemur -24.0052 1.21624 7.51196
rtibia 58.5087
rfoot 18.9997 -15.5402
rtoes 21.7505
lfemur -10.8747 16.7914 -28.7975
ltibia 50.2321
lfoot 25.3899 1.44575
ltoes 4.49
360
root 13.293 26.4732 10.2253 -18.7712 -62.8485 20.8959
lowerback 2.39727 -2.8513 -0.327162
upperback 3.18955 -3.98667 4.92487
thorax 2.32376 -2.1174 5.28217
lowerneck -1.65247 -3.19683 -4.14325
upperneck 11.1721 -5.3006 9.63018
head 3.95157 -2.42554 3.40631
rclavicle -4.77083e-014 -2.54444e-014
rhumerus -10.63 -40.3963 10.6627
rradius 66.8415
rwrist -50.6686
rhand -18.2236 -6.77342
rfingers 7.12502
rthumb 8.05454 -36.5999
lclavicle -4.77083e-014 -2.54444e-014
lhumerus -18.0908 -67.8465 1.75045
lradius 20.5069
lwrist 21.0437
lhand 2.87835 0.352224
lfingers 7.12502
lthumb 28.3443 28.2268
rfemur -26.6035 1.36671 6.2793
rtibia 63.8693
rfoot 19.7819 -12.935
rtoes 16.0444
lfemur -12.6741 18.2556 -31.0518
ltibia 53.7288
lfoot 25.8522 1.5941
ltoes 5.96041
361
root 13.3897 26.8149 10.2555 -23.9026 -65.8138 26.0864
lowerback 4.07623 -2.61702 -0.809744
upperback 4.09465 -3.71523 4.93251
thorax 2.3304 -2.02358 5.63254
lowerneck -1.40612 -3.47525 -4.51695
upperneck 11.2537 -5.77339 10.354
head 3.99715 -2.65258 3.67425
rclavicle -1.59028e-015 -3.49861e-014
rhumerus -11.7219 -39.122 6.81926
rradius 66.0833
rwrist -56.2276
rhand -17.4697 -12.7904
rfingers 7.12502
rthumb 8.78207 -42.5877
lclavicle -1.59028e-015 -3.49861e-014
lhumerus -37.4378 -66.6936 20.0489
lradius 19.124
lwrist 17.6446
lhand 5.7453 0.120093
lfingers 7.12502
lthumb 31.0806 27.5062
rfemur -29.3131 1.68182 5.4757
rtibia 69.0486
rfoot 19.7746 -10.7782
rtoes 10.0734
lfemur -14.9617 19.475 -32.931
ltibia 57.4633
lfoot 25.6142 2.40233
ltoes 7.88149
